<svg viewBox="28.553 131.404 353.497 182.731" xmlns="http://www.w3.org/2000/svg">
  <defs>
    <linearGradient gradientUnits="userSpaceOnUse" x1="205.703" y1="133.415" x2="205.703" y2="314.242" id="gradient-0">
      <stop offset="0" style="stop-color: #bada55"></stop>
      <stop offset="1" style="stop-color: #758d29"></stop>
    </linearGradient>
  </defs>
  <path style="fill: rgb(19, 31, 91);" d="M 29.388 314.1 L 382.168 314.242 L 381.956 191.345 L 378.655 188.757 L 378.463 181.727 L 377.534 179.389 L 372.313 179.299 L 370.089 180.558 L 361.823 180.675 L 359.646 179.312 L 358.975 171.018 L 356.014 163.798 L 355.242 158.102 L 348.263 158.429 L 344.077 165.249 L 344.707 177.515 L 344.126 181.993 L 339.951 181.903 L 339.712 148.045 L 332.797 148.164 L 330.454 137.89 L 320.962 138.312 L 322.864 150.416 L 314.222 150.951 L 312.144 156.54 L 311.267 162.693 L 304.362 161.912 L 299.763 163.851 L 300.508 177.063 L 296.323 176.995 L 295.5 172.217 L 293.192 159.696 L 282.605 158.61 L 282.945 148.718 L 268.193 149.695 L 268.098 155.805 L 262.095 156.768 L 261.423 176.023 L 255.383 174.573 L 254.938 178.492 L 244.612 177.46 L 244.699 170.211 L 242.175 156.067 L 236.614 155.967 L 230.344 160.946 L 230.724 178.377 L 228.441 184.387 L 223.996 184.146 L 223.714 175.4 L 216.735 133.415 L 207.501 134.462 L 207.433 149.482 L 201.325 150.973 L 197.57 155.482 L 193.977 175.281 L 184.852 175.217 L 182.199 171.319 L 180.378 163.69 L 180.199 156.46 L 170.835 156.372 L 170.72 162.506 L 168.074 165.325 L 159.671 165.649 L 159.722 151.456 L 154.225 151.269 L 152.945 143.101 L 133.082 143.397 L 133.868 165.038 L 119.397 168.128 L 119.229 184.49 L 102.998 184.656 L 102.715 150.846 L 77.294 153.762 L 77.241 165.831 L 62.97 166.228 L 63.271 179.812 L 63.917 188.643 L 46.544 188.659 L 45.651 152.816 L 31.751 152.579 L 29.238 191.292 L 29.388 314.1 Z"></path>
</svg>