<svg viewBox="28.553 93.459 338.597 220.417" xmlns="http://www.w3.org/2000/svg">
  <defs>
    <linearGradient gradientUnits="userSpaceOnUse" x1="205.703" y1="133.415" x2="205.703" y2="314.242" id="gradient-0">
      <stop offset="0" style="stop-color: #bada55"></stop>
      <stop offset="1" style="stop-color: #758d29"></stop>
    </linearGradient>
  </defs>
  <path style="fill: rgb(17, 23, 57);" d="M 28.978 314.011 L 367.082 314.793 L 366.759 234.278 L 353.514 164.457 L 341.342 164.267 L 341.041 185.266 L 331.638 186.418 L 327.816 190.399 L 327.987 205.752 L 322.901 207.991 L 308.905 207.187 L 311.708 195.057 L 301.241 194.033 L 301.273 172.249 L 271.472 172.799 L 274.476 218.331 L 250.31 219.083 L 250.207 201.112 L 225.152 205.01 L 224.733 228.31 L 195.212 228.12 L 194.772 183.59 L 160.49 185.806 L 161.391 203.064 L 146.898 201.796 L 139.767 205.149 L 142.557 233.195 L 119.768 232.573 L 118.622 183.995 L 97.356 184.517 L 95.367 239.575 L 90.894 221.462 L 56.108 222.163 L 49.793 190.042 L 35.994 195.599 L 29.607 235.712 L 28.978 314.011 Z"></path>
</svg>