<svg viewBox="-35.886 138.72 598.108 174.797" xmlns="http://www.w3.org/2000/svg">
  <defs>
    <linearGradient gradientUnits="userSpaceOnUse" x1="205.703" y1="133.415" x2="205.703" y2="314.242" id="gradient-0">
      <stop offset="0" style="stop-color: #bada55"></stop>
      <stop offset="1" style="stop-color: #758d29"></stop>
    </linearGradient>
  </defs>
  <path style="" d="M -36.252 316.212 C -36.252 316.212 564.118 316.402 564.118 316.554 C 564.118 316.706 558.318 296.624 558.318 296.624 L 558.876 275.459 L 535.192 280.135 L 526.242 276.576 L 527.663 231.371 L 508.85 231.646 L 490.455 227.251 L 490.178 264.11 L 482.545 288.259 L 476.206 296.617 L 469.714 297.144 L 457.881 276.398 L 449.578 237.918 L 450.984 198.601 L 430.674 205.56 L 413.639 206.332 L 416.831 247.538 L 409.861 278.718 L 402.655 258.46 L 404.386 250.518 L 393.757 253.643 L 387.894 249.217 L 388.87 226.439 L 374.873 224.695 L 371.107 214.214 L 371.269 195.604 L 357.514 195.144 L 338.907 189.338 L 344.978 226.731 L 344.841 277.189 L 324.904 279.239 L 318.532 273.956 L 320.049 232.488 L 299.953 231.857 L 280.908 226.595 L 281.269 246.003 L 272.614 249.551 L 261.44 248.331 L 262.435 277.187 L 257.713 291.553 L 245.91 268.33 L 240.887 227.023 L 243.116 197.409 L 217.257 206.471 L 203.673 207.736 L 209.055 230.435 L 207.983 259.986 L 194.411 265.838 L 181.267 267.2 L 183.353 298.575 L 174.011 294.184 L 160.272 273.011 L 155.665 240.452 L 137.94 240.098 L 125.59 235.388 L 124.612 213.083 L 129.326 189.78 L 118.692 183.228 L 114.997 176.027 L 106.161 175.81 L 108.162 191.35 L 104.886 196.763 L 96.952 196.526 L 91.799 189.561 L 93.248 175.494 L 84.738 175.286 L 82.567 183.048 L 68.516 192.286 L 75.627 229.124 L 68.108 267.164 L 58.852 270.178 L 47.352 270.549 L 46.784 291.32 L 40.44 275.722 L 34.918 251.769 L 34.234 223.516 L 13.621 224.292 L -7.184 221.065 L -5.497 247.466 L -31.352 250.363 L -37.537 277.646 L -36.252 316.212 Z"></path>
</svg>